<!-- Generator: Adobe Illustrator 25.0.0, SVG Export Plug-In  -->
<svg version="1.1" xmlns="http://www.w3.org/2000/svg" xmlns:xlink="http://www.w3.org/1999/xlink" x="0px" y="0px"
	 width="109.099px" height="5.865px" viewBox="0 0 109.099 5.865"
	 style="overflow:visible;enable-background:new 0 0 109.099 5.865;" xml:space="preserve">
<style type="text/css">
	.st0{fill:#FFFFFF;}
	.st1{fill:#0081C3;}
	.st2{fill:#F39743;}
	.st3{fill:#1C201C;}
	.st4{fill:#252521;}
	.st5{fill:#EE7A44;}
	.st6{fill:#F8AC07;}
	.st7{fill:#E00C19;}
	.st8{fill:#ACC83B;}
	.st9{fill:#494549;}
</style>
<defs>
</defs>
<g>
	<rect class="st0" width="21.917" height="5.861"/>
	<g>
		<rect x="65.535" y="0.001" class="st1" width="21.826" height="5.863"/>
		<path class="st0" d="M72.221,4.463l-0.144,0.114L71.922,4.68c-1.302,0.778-3.005-0.003-3.187-1.538L68.726,2.93V2.829
			c0.088-1.502,1.709-2.388,3.039-1.729l0.139,0.072l0.135,0.085l-0.676,0.691l-0.127-0.055l-0.13-0.042
			c-0.999-0.239-1.814,0.828-1.228,1.703l0.065,0.084l0.07,0.081l0.083,0.072c0.256,0.204,0.614,0.309,0.936,0.229l0.052-0.017
			l0.048-0.021c0.232-0.116,0.196-0.425-0.004-0.546l-0.056-0.026L71.02,3.4l-0.053-0.004l1.254-1.28V4.463"/>
		<path class="st0" d="M76.878,1.993l0.156,0.005c0.753,0.08,1.342,0.694,1.344,1.457v1.47h-0.893V3.447
			c-0.04-0.781-1.165-0.782-1.205,0v1.478h-2.056l-0.186-0.004c-1.176,0.067-1.999-1.11-1.436-2.166l0.074-0.118l0.087-0.114
			c0.746-0.872,2.169-0.639,2.571,0.44l0.039,0.123L75.4,3.218l0.03-0.132c0.161-0.6,0.694-1.04,1.313-1.088l0.139-0.009
			L76.878,1.993 M73.508,3.888l0.842-0.856l-0.091-0.068c-0.582-0.373-1.249,0.345-0.789,0.881L73.508,3.888z M74.606,4.065h1.612
			l-0.806-0.796L74.606,4.065z"/>
		<path class="st0" d="M82.736,3.269l-0.807,0.796h0.807v0.86h-1.188l-0.187-0.004C80.127,4.998,79.298,3.687,80,2.637l0.087-0.114
			l0.096-0.106c0.825-0.789,2.204-0.44,2.515,0.669l0.025,0.132L82.736,3.269 M80.832,3.887l0.838-0.855l-0.087-0.068
			c-0.589-0.367-1.248,0.334-0.794,0.881L80.832,3.887z"/>
		<path class="st0" d="M79.9,1.828h-1.612l0.806-0.801L79.9,1.828z M79.549,4.938h-0.906V2.129h0.906V4.938z"/>
	</g>
	<rect x="21.884" class="st2" width="21.826" height="5.864"/>
	<path class="st0" d="M30.822,1.096l-1.424,3.28c-0.106,0.224-0.441,0.402-0.632,0.402h-2.382l0.555-1.29h1.205l1.043-2.392H30.822"
		/>
	<path class="st0" d="M35.031,2.461l-0.384,0.888c-0.019,0.051-0.048,0.14,0.062,0.14h0.607l0.077-0.206h-0.409l0.31-0.719h1.834
		l-0.96,2.215h-2.477c-0.489,0-0.791-0.282-0.847-0.669l-0.292,0.669h-3.061l1.617-3.683h1.635l-1.046,2.393l1.249-0.001
		l0.725-1.645c0.229-0.495,0.784-0.748,1.071-0.748h3.027l-0.521,1.206H35.2C35.091,2.302,35.07,2.377,35.031,2.461"/>
	<path class="st0" d="M30.822,1.096l-1.424,3.28c-0.106,0.224-0.441,0.402-0.632,0.402h-2.382l0.555-1.29h1.205l1.043-2.392H30.822"
		/>
	<rect x="43.709" y="0.001" class="st3" width="21.825" height="5.864"/>
	<path class="st0" d="M53.669,4.122h-0.584V2.865c0.086-0.812-1.053-0.885-0.945,0.168v1.088h-0.584V1.745h0.567v0.133l0.029-0.02
		c0.723-0.418,1.569,0.049,1.517,0.923V4.122"/>
	<path class="st0" d="M55.19,2.241l-0.034,0.001l-0.035,0.004c-0.78,0.092-0.781,1.278,0.005,1.367l0.034,0.002l0.035,0.001
		c0.832-0.017,0.879-1.283,0.065-1.371l-0.035-0.004L55.19,2.241 M55.196,4.184l-0.033-0.001L55.13,4.181
		c-1.588-0.124-1.593-2.408,0.045-2.506h0.032l0.031,0c1.601,0.13,1.591,2.352,0.021,2.505l-0.032,0.002L55.196,4.184z"/>
	<path class="st0" d="M57.298,4.122h-0.585V1.745h0.559v0.113l0.023-0.018c0.123-0.095,0.268-0.127,0.42-0.133l0.09-0.001v0.583
		l-0.083,0.006c-0.342,0.021-0.428,0.191-0.425,0.513V4.122"/>
	<polygon class="st0" points="60.23,4.122 59.479,4.122 58.704,3.162 58.704,4.122 58.123,4.122 58.123,1.373 58.704,1.373 
		58.704,2.598 59.375,1.745 60.072,1.745 59.178,2.875 	"/>
	<path class="st0" d="M60.659,2.635h1.194l-0.021-0.046c-0.232-0.489-0.94-0.458-1.162,0.024L60.659,2.635 M61.263,4.179
		l-0.034-0.001l-0.033-0.001c-0.971-0.034-1.514-1.152-0.98-1.944l0.036-0.048l0.038-0.049c0.762-0.916,2.274-0.381,2.222,0.881
		v0.148h-1.874l0.008,0.026c0.17,0.474,0.823,0.57,1.121,0.18l0.666-0.001l-0.02,0.047c-0.213,0.457-0.588,0.743-1.099,0.761
		L61.263,4.179z"/>
	<rect x="62.804" y="1.373" class="st0" width="0.58" height="2.749"/>
	<path class="st0" d="M50.968,2.939l0.024,0.018c0.594,0.434,0.186,1.199-0.553,1.164h-1.046V3.555h1.196l0.019-0.002l0.032-0.009
		l0.022-0.014l0.016-0.022l0.006-0.028l-0.002-0.019l-0.008-0.019l-0.016-0.019l-0.043-0.027c-0.119-0.065-0.244-0.121-0.365-0.183
		l-0.08-0.04l-0.082-0.042L50.006,3.09c-0.199-0.109-0.459-0.221-0.565-0.438L49.43,2.625l-0.009-0.029l-0.009-0.028
		c-0.108-0.503,0.299-0.816,0.769-0.822l0.046-0.001h0.939V2.31h-1.089c-0.14,0.014-0.122,0.136,0.022,0.183l0.05,0.024l0.058,0.029
		c0.226,0.114,0.457,0.22,0.679,0.343l0.046,0.026L50.968,2.939"/>
	<path class="st0" d="M47.756,4.604h-1.895v-2.18c-0.001-0.65,0.546-1.165,1.19-1.162h1.894v2.18c0,0.629-0.507,1.13-1.129,1.161
		L47.756,4.604"/>
	<path class="st4" d="M48.831,3.442l0,0.054c-0.033,0.569-0.511,0.997-1.075,0.997h-1.781V2.424c0-0.59,0.492-1.052,1.076-1.051
		h1.78V3.442"/>
	<path class="st5" d="M46.463,3.555h1.871l-0.005,0.032c-0.086,0.382-0.459,0.536-0.819,0.534h-1.046V3.555"/>
	<path class="st0" d="M48.037,2.939l0.024,0.017c0.154,0.107,0.275,0.264,0.281,0.458l0.001,0.023h-0.603l-0.021-0.019
		c-0.312-0.211-1.229-0.472-1.249-0.906l-0.003-0.031l-0.003-0.03c-0.017-0.458,0.369-0.695,0.787-0.704l0.046-0.001h0.94V2.31
		h-1.09c-0.114,0.004-0.13,0.118-0.019,0.161l0.041,0.022l0.051,0.024c0.245,0.125,0.495,0.24,0.735,0.373l0.046,0.026L48.037,2.939
		"/>
	<g>
		<polygon class="st6" points="2.146,4.108 2.146,5.028 2.771,5.028 3.684,4.108 		"/>
		<polygon class="st7" points="16.352,0.824 18.021,2.495 17.098,3.418 18.542,3.418 19.465,2.495 17.794,0.824 		"/>
		<polygon class="st7" points="18.961,3.418 19.273,3.418 19.834,2.861 19.677,2.702 		"/>
		<polygon points="14.221,0.824 15.889,2.495 14.966,3.418 16.411,3.418 17.334,2.495 15.662,0.824 		"/>
		<polygon points="3.328,0.906 3.328,1.779 2.756,1.779 2.756,0.906 2.146,0.906 2.146,3.421 2.756,3.421 2.756,2.425 3.328,2.425 
			3.328,3.421 3.938,3.421 3.938,0.906 		"/>
		<g>
			<path d="M5.648,3.014c0,0.139,0.006,0.292,0.068,0.41h-0.56C5.141,3.374,5.135,3.3,5.135,3.25H5.129
				C5.014,3.418,4.843,3.468,4.666,3.468c-0.277,0-0.507-0.168-0.507-0.554c0-0.578,0.534-0.557,0.814-0.625
				c0.074-0.018,0.15-0.044,0.15-0.162c0-0.124-0.091-0.168-0.18-0.168c-0.168,0-0.203,0.109-0.206,0.186H4.224
				c0.018-0.516,0.398-0.598,0.74-0.598c0.687,0,0.681,0.363,0.681,0.716v0.752H5.648z M5.12,2.601
				C5.052,2.643,4.979,2.669,4.905,2.69C4.784,2.725,4.719,2.764,4.719,2.887c0,0.085,0.071,0.168,0.171,0.168
				c0.124,0,0.221-0.094,0.23-0.286V2.601z"/>
			<path d="M7.437,3.421H6.907v-0.23H6.901C6.798,3.374,6.65,3.468,6.432,3.468c-0.256,0-0.492-0.2-0.492-0.619V1.593h0.548v0.958
				c0,0.212,0.021,0.36,0.18,0.36c0.094,0,0.218-0.059,0.218-0.354V1.59h0.548v1.831H7.437z"/>
			<rect x="7.747" y="0.906" width="0.548" height="2.518"/>
			<path d="M9.333,3.468c-0.542,0-0.784-0.454-0.784-0.961s0.245-0.958,0.784-0.958c0.542,0,0.784,0.451,0.784,0.958
				C10.12,3.014,9.875,3.468,9.333,3.468 M9.333,2.056c-0.209,0-0.236,0.256-0.236,0.451c0,0.195,0.027,0.454,0.236,0.454
				c0.209,0,0.236-0.259,0.236-0.454C9.569,2.312,9.542,2.056,9.333,2.056"/>
			<path d="M11.019,1.593h0.295v0.43h-0.295V2.66c0,0.168,0.032,0.242,0.171,0.242c0.041,0,0.083-0.003,0.124-0.012v0.528
				c-0.112,0-0.236,0.021-0.354,0.021c-0.233,0-0.492-0.047-0.492-0.545V2.021h-0.245V1.59h0.245V1.033h0.551V1.593z"/>
			<path d="M12.263,1.593h0.295v0.43h-0.295V2.66c0,0.168,0.029,0.242,0.168,0.242c0.041,0,0.083-0.003,0.124-0.012v0.528
				c-0.112,0-0.236,0.021-0.354,0.021c-0.233,0-0.492-0.047-0.492-0.545V2.021h-0.245V1.59h0.245V1.033h0.548v0.56H12.263z"/>
			<path d="M13.195,2.663c0.015,0.209,0.109,0.357,0.28,0.357c0.088,0,0.186-0.041,0.23-0.13h0.513
				c-0.112,0.395-0.413,0.578-0.74,0.578c-0.46,0-0.808-0.345-0.808-0.955c0-0.531,0.304-0.967,0.761-0.967
				c0.572,0,0.82,0.404,0.82,1.117L13.195,2.663L13.195,2.663z M13.722,2.301c0-0.168-0.1-0.307-0.242-0.307
				c-0.165,0-0.256,0.109-0.283,0.307H13.722z"/>
			<polygon points="4.557,4.927 4.557,5.028 4.05,5.028 4.05,4.108 4.156,4.108 4.156,4.927 			"/>
			<polygon points="4.881,4.208 4.881,4.512 5.347,4.512 5.347,4.612 4.881,4.612 4.881,4.927 5.418,4.927 5.418,5.028 4.775,5.028 
				4.775,4.108 5.4,4.108 5.4,4.208 			"/>
			<polygon points="5.96,4.208 5.96,5.028 5.854,5.028 5.854,4.208 5.553,4.208 5.553,4.108 6.261,4.108 6.261,4.208 			"/>
			<path d="M6.514,4.176c0,0.021-0.009,0.038-0.021,0.056L6.432,4.326H6.373l0.044-0.097C6.397,4.217,6.388,4.196,6.388,4.173
				c0-0.038,0.027-0.068,0.062-0.068C6.488,4.108,6.514,4.134,6.514,4.176"/>
			<path d="M7.331,4.187L7.287,4.285c-0.083-0.056-0.18-0.077-0.254-0.077c-0.118,0-0.195,0.044-0.195,0.121
				c0,0.236,0.519,0.112,0.516,0.448c0,0.153-0.136,0.254-0.333,0.254c-0.133,0-0.265-0.059-0.351-0.142l0.047-0.094
				c0.085,0.083,0.203,0.13,0.307,0.13c0.133,0,0.215-0.053,0.215-0.142c0-0.242-0.516-0.112-0.516-0.442
				c0-0.144,0.127-0.239,0.318-0.239C7.148,4.102,7.254,4.137,7.331,4.187"/>
			<path d="M8.319,4.108c0.289,0,0.489,0.186,0.489,0.46c0,0.271-0.203,0.46-0.498,0.46H7.924v-0.92H8.319z M8.157,4.842h0.168
				c0.144,0,0.245-0.109,0.245-0.271c0-0.162-0.109-0.274-0.256-0.274H8.157V4.842z"/>
			<path d="M9.162,4.857L9.094,5.028H8.852l0.398-0.92h0.242l0.389,0.92H9.631L9.566,4.857H9.162z M9.365,4.341L9.233,4.68h0.265
				L9.365,4.341z"/>
			<path d="M10.432,4.768h-0.006H10.25v0.259h-0.233v-0.92h0.413c0.242,0,0.383,0.115,0.383,0.321c0,0.142-0.059,0.242-0.168,0.295
				l0.195,0.304h-0.265L10.432,4.768z M10.424,4.585c0.1,0,0.159-0.05,0.159-0.147s-0.059-0.144-0.159-0.144h-0.177v0.292H10.424z"
				/>
			<polygon points="11.246,4.291 11.246,4.473 11.685,4.473 11.685,4.659 11.246,4.659 11.246,4.845 11.747,4.845 11.747,5.028 
				11.013,5.028 11.013,4.108 11.732,4.108 11.732,4.291 			"/>
			<polygon points="12.723,4.296 12.723,5.028 12.49,5.028 12.49,4.296 12.216,4.296 12.216,4.105 13,4.105 13,4.296 			"/>
			<path d="M14.035,4.565c0,0.268-0.212,0.472-0.498,0.472c-0.283,0-0.498-0.203-0.498-0.472c0-0.268,0.212-0.466,0.498-0.466
				C13.823,4.099,14.035,4.299,14.035,4.565 M13.28,4.568c0,0.156,0.121,0.274,0.259,0.274c0.142,0,0.254-0.121,0.254-0.274
				c0-0.156-0.112-0.271-0.254-0.271C13.398,4.296,13.28,4.411,13.28,4.568"/>
			<path d="M15.002,4.559v0.36c-0.097,0.071-0.254,0.121-0.383,0.121c-0.28,0-0.492-0.203-0.492-0.472
				c0-0.265,0.218-0.469,0.507-0.469c0.136,0,0.28,0.053,0.377,0.136l-0.133,0.159c-0.068-0.062-0.159-0.1-0.245-0.1
				c-0.15,0-0.265,0.118-0.265,0.271c0,0.156,0.118,0.274,0.268,0.274c0.047,0,0.109-0.018,0.162-0.044V4.556h0.203V4.559z"/>
			<polygon points="15.447,4.291 15.447,4.473 15.886,4.473 15.886,4.659 15.447,4.659 15.447,4.845 15.948,4.845 15.948,5.028 
				15.214,5.028 15.214,4.108 15.933,4.108 15.933,4.291 			"/>
			<polygon points="16.573,4.296 16.573,5.028 16.34,5.028 16.34,4.296 16.063,4.296 16.063,4.105 16.85,4.105 16.85,4.296 			"/>
			<polygon points="17.614,5.028 17.614,4.671 17.23,4.671 17.23,5.028 16.998,5.028 16.998,4.108 17.23,4.108 17.23,4.485 
				17.614,4.485 17.614,4.108 17.847,4.108 17.847,5.028 			"/>
			<polygon points="18.312,4.291 18.312,4.473 18.752,4.473 18.752,4.659 18.312,4.659 18.312,4.845 18.814,4.845 18.814,5.028 
				18.08,5.028 18.08,4.108 18.799,4.108 18.799,4.291 			"/>
			<path d="M19.43,4.768h-0.006h-0.177v0.259h-0.233v-0.92h0.413c0.242,0,0.383,0.115,0.383,0.321c0,0.142-0.059,0.242-0.168,0.295
				l0.195,0.304h-0.265L19.43,4.768z M19.424,4.585c0.1,0,0.159-0.05,0.159-0.147s-0.059-0.144-0.159-0.144h-0.177v0.292H19.424z"/>
		</g>
	</g>
	<polygon class="st8" points="109.099,5.864 87.361,5.864 87.361,0.001 106.234,0.001 	"/>
	<g>
		<path class="st9" d="M102.321,3.022c0,0.098-0.003,0.169-0.009,0.211c-0.006,0.041-0.025,0.078-0.057,0.113
			c-0.032,0.034-0.075,0.061-0.13,0.078c-0.054,0.019-0.117,0.028-0.189,0.028c-0.069,0-0.131-0.008-0.185-0.026
			c-0.054-0.017-0.099-0.043-0.132-0.078c-0.033-0.034-0.053-0.072-0.059-0.113c-0.006-0.04-0.009-0.111-0.009-0.213V2.853
			c0-0.099,0.002-0.169,0.009-0.21c0.006-0.041,0.025-0.079,0.057-0.113c0.032-0.034,0.075-0.061,0.13-0.079
			c0.054-0.018,0.117-0.027,0.19-0.027c0.068,0,0.13,0.009,0.184,0.026c0.055,0.017,0.098,0.043,0.132,0.077
			c0.033,0.035,0.053,0.072,0.06,0.113c0.006,0.04,0.009,0.111,0.009,0.213V3.022z M102.856,2.379
			c-0.015-0.076-0.064-0.147-0.145-0.211c-0.081-0.065-0.19-0.113-0.324-0.146c-0.135-0.032-0.286-0.048-0.454-0.048
			c-0.178,0-0.333,0.016-0.466,0.051c-0.134,0.034-0.24,0.083-0.319,0.147c-0.078,0.064-0.125,0.135-0.14,0.212
			c-0.015,0.078-0.023,0.209-0.023,0.395v0.316c0,0.19,0.008,0.324,0.023,0.4c0.016,0.076,0.065,0.147,0.146,0.212
			c0.082,0.065,0.19,0.113,0.324,0.145c0.135,0.032,0.286,0.048,0.454,0.048c0.177,0,0.333-0.017,0.467-0.051
			c0.133-0.034,0.239-0.084,0.318-0.147c0.078-0.064,0.125-0.135,0.14-0.212c0.015-0.077,0.022-0.209,0.022-0.395V2.779
			C102.879,2.589,102.871,2.455,102.856,2.379"/>
		<path class="st9" d="M95.079,3.022c0,0.098-0.003,0.169-0.009,0.211c-0.007,0.041-0.025,0.078-0.057,0.113
			c-0.031,0.034-0.075,0.061-0.129,0.078c-0.054,0.019-0.118,0.028-0.19,0.028c-0.068,0-0.131-0.008-0.185-0.026
			c-0.054-0.017-0.098-0.043-0.131-0.078c-0.034-0.034-0.053-0.072-0.06-0.113c-0.006-0.04-0.009-0.111-0.009-0.213V2.853
			c0-0.099,0.003-0.169,0.009-0.21c0.007-0.041,0.025-0.079,0.058-0.113c0.032-0.034,0.075-0.061,0.129-0.079
			c0.054-0.018,0.117-0.027,0.19-0.027c0.068,0,0.129,0.009,0.185,0.026c0.055,0.017,0.098,0.043,0.132,0.077
			c0.033,0.035,0.053,0.072,0.059,0.113c0.007,0.04,0.01,0.111,0.01,0.213V3.022z M95.614,2.379
			c-0.015-0.076-0.064-0.147-0.146-0.211c-0.082-0.065-0.189-0.113-0.324-0.146C95.01,1.99,94.858,1.974,94.69,1.974
			c-0.178,0-0.334,0.016-0.467,0.051c-0.134,0.034-0.239,0.083-0.318,0.147c-0.078,0.064-0.125,0.135-0.14,0.212
			c-0.015,0.078-0.023,0.209-0.023,0.395v0.316c0,0.19,0.008,0.324,0.024,0.4c0.015,0.076,0.064,0.147,0.146,0.212
			c0.081,0.065,0.19,0.113,0.324,0.145C94.37,3.884,94.521,3.9,94.69,3.9c0.177,0,0.333-0.017,0.466-0.051
			c0.134-0.034,0.24-0.084,0.318-0.147c0.078-0.064,0.125-0.135,0.139-0.212c0.015-0.077,0.023-0.209,0.023-0.395V2.779
			C95.637,2.589,95.629,2.455,95.614,2.379"/>
		<path class="st9" d="M92.902,3.022c0,0.098-0.003,0.169-0.009,0.211c-0.006,0.041-0.024,0.078-0.057,0.113
			c-0.031,0.034-0.075,0.061-0.129,0.078c-0.055,0.019-0.118,0.028-0.19,0.028c-0.069,0-0.13-0.008-0.185-0.026
			c-0.054-0.017-0.098-0.043-0.131-0.078c-0.033-0.034-0.053-0.072-0.059-0.113c-0.006-0.04-0.01-0.111-0.01-0.213V2.853
			c0-0.099,0.003-0.169,0.009-0.21c0.006-0.041,0.025-0.079,0.057-0.113c0.032-0.034,0.075-0.061,0.129-0.079
			c0.054-0.018,0.117-0.027,0.19-0.027c0.068,0,0.13,0.009,0.184,0.026c0.055,0.017,0.099,0.043,0.132,0.077
			c0.033,0.035,0.053,0.072,0.059,0.113c0.006,0.04,0.009,0.111,0.009,0.213V3.022z M93.437,2.379
			c-0.015-0.076-0.064-0.147-0.145-0.211c-0.082-0.065-0.19-0.113-0.324-0.146c-0.134-0.032-0.286-0.048-0.454-0.048
			c-0.178,0-0.333,0.016-0.467,0.051c-0.134,0.034-0.24,0.083-0.318,0.147c-0.078,0.064-0.125,0.135-0.14,0.212
			c-0.015,0.078-0.023,0.209-0.023,0.395v0.316c0,0.19,0.008,0.324,0.024,0.4c0.015,0.076,0.065,0.147,0.146,0.212
			c0.081,0.065,0.19,0.113,0.324,0.145C92.193,3.884,92.345,3.9,92.514,3.9c0.177,0,0.333-0.017,0.466-0.051
			c0.134-0.034,0.24-0.084,0.318-0.147c0.078-0.064,0.125-0.135,0.139-0.212c0.015-0.077,0.023-0.209,0.023-0.395V2.779
			C93.461,2.589,93.453,2.455,93.437,2.379"/>
		<polygon class="st9" points="103.161,3.872 103.704,3.872 103.704,2.85 104.404,3.872 104.948,3.872 104.948,2.011 104.404,2.011 
			104.404,3.041 103.7,2.011 103.161,2.011 		"/>
		<rect x="100.117" y="2.01" class="st9" width="0.586" height="1.862"/>
		<polygon class="st9" points="98.35,3.872 99.835,3.872 99.835,3.414 98.934,3.414 98.934,2.011 98.35,2.011 		"/>
		<polygon class="st9" points="95.919,3.872 96.393,3.872 96.393,2.452 96.756,3.872 97.185,3.872 97.549,2.418 97.549,3.872 
			98.022,3.872 98.022,2.011 97.2,2.011 96.973,2.944 96.745,2.011 95.919,2.011 		"/>
		<polygon class="st9" points="89.53,2.408 90.611,2.408 89.53,3.486 89.53,3.872 91.329,3.872 91.329,3.472 90.244,3.472 
			91.322,2.395 91.322,2.011 89.53,2.011 		"/>
	</g>
</g>
</svg>