<!-- Generator: Adobe Illustrator 25.0.0, SVG Export Plug-In  -->
<svg version="1.1" xmlns="http://www.w3.org/2000/svg" xmlns:xlink="http://www.w3.org/1999/xlink" x="0px" y="0px"
	 width="624.939px" height="232.679px" viewBox="0 0 624.939 232.679"
	 style="overflow:visible;enable-background:new 0 0 624.939 232.679;" xml:space="preserve">
<style type="text/css">
	.st0{fill:#C8A894;}
	.st1{fill:#C94217;}
	.st2{fill:#1D1D1B;}
</style>
<defs>
</defs>
<g>
	<path class="st0" d="M120.008,87.465c-0.958,0.167-8.724,1.624-9.197,1.451c-0.678-0.248,0.757-2.34,1.46-2.631
		c43.477-17.995,83.787-29.783,129.956-37.532c67.037-11.251,236.378-36.989,288.406,15.251
		c9.602,9.641,14.046,22.506,13.191,36.131c-4.842,77.18-192.44,107.435-251.302,120.942c4.278-3.014,41.26-13.215,48.625-15.447
		c41-12.431,104.491-34.486,134.937-65.289c10.242-10.363,18.501-24.305,12.616-39.243c-28.645-72.699-230.492-40.731-289.9-30.448"
		/>
	<path class="st1" d="M95.959,77.962c2.329-3.806,31.035-15.799,36.831-18.291C240.447,13.384,489.25-33.15,592.087,32.626
		c25.128,16.072,38.814,41.37,30.34,71.533c-16.811,59.837-121.784,89.503-174.826,102.03c-20.642,4.875-41.42,9.361-62.243,13.673
		c81.147-21.996,178.056-58.642,181.661-121.497c0.928-16.18-3.895-31.456-14.318-42.905c-56.473-62.032-240.28-31.47-313.044-18.11
		C200.872,44.472,106.417,75.011,95.959,77.962z"/>
	<g>
		<g>
			<path class="st1" d="M349.493,158.985c-0.089,0.007-0.177,0.015-0.266,0.022c-0.269,0.013-0.538,0.025-0.807,0.038"/>
			<path class="st1" d="M341.488,159.775c-0.736,0.063-0.983,0.412-0.957,1.102c0.047,1.225,0.072,2.451,0.088,3.677
				c0.008,0.618,0.292,0.965,0.887,1.121c1.521,0.399,3.035,0.82,4.552,1.233c0.537,0.192,1.079,0.372,1.609,0.579
				c0.833,0.326,1.245,0.95,1.201,1.844c-0.081,1.623-0.144,3.247-0.281,4.865c-0.17,2.016-0.713,2.497-2.729,2.522
				c-7.417,0.09-14.833,0.172-22.25,0.257c0-0.793,0-1.533,0-2.326c0.092,0.01,0.184-0.033,0.275-0.022
				c6.245,0.001,12.491,0.051,18.736-0.014c4.215-0.044,3.603,0.96,3.952-3.878c0.068-0.947-0.231-1.469-1.171-1.73
				c-1.864-0.517-3.7-1.132-5.558-1.668c-1.032-0.298-1.742-0.817-1.723-1.996c0.034-1.75,0.038-3.501,0.11-5.25
				c0.069-1.655,0.435-2.041,2.067-2.308c1.034-0.169,2.076-0.292,3.115-0.436c3.529-0.348,7.059-0.684,10.585-1.059
				c0.531-0.057,1.401-0.054,1.358-0.723c-0.042-0.651-0.902-0.446-1.425-0.525c-3.118-0.47-6.305-0.228-9.403-0.915
				c-1.004-1.287-1.006-2.887-0.007-4.287c3.943-0.976,7.991-1.489,11.954-2.65c-0.318-0.531-0.79-0.507-1.19-0.602
				c-3.074-0.729-6.153-1.439-9.227-2.169c-2.647-0.628-3.077-1.404-2.316-3.997c0.36-1.227,1.409-1.3,2.38-1.495
				c2.377-0.479,4.76-0.932,7.14-1.396c0.001-0.144,0.001-0.287,0.002-0.431c-2.215-0.645-4.43-1.29-6.646-1.934
				c-1.288-0.374-2.688-0.531-3.505-1.815c0.033-0.348,0.099-0.696,0.092-1.043c-0.02-1.084,0.374-1.773,1.52-2.047
				c2.127-0.508,4.23-1.116,6.343-1.683c1.333-0.285,2.707-0.44,4.144-1.267c-2.562-1.311-5.11-2.012-7.578-2.915
				c-0.344-0.119-0.687-0.239-1.031-0.358c-0.184-0.058-0.369-0.117-0.553-0.175c-2.048-0.466-2.367-0.797-2.377-2.471
				c-0.017-2.674,0.144-2.962,2.348-3.455c2.051-0.459,4.122-0.825,6.184-1.238c0.382-0.076,0.783-0.113,1.103-0.403
				c-0.168-0.525-0.676-0.508-1.063-0.638c-2.45-0.828-4.901-1.654-7.366-2.434c-1.088-0.344-1.614-0.958-1.411-2.135
				c0.066-0.384,0.07-0.799,0-1.181c-0.191-1.048,0.289-1.569,1.262-1.756c3.538-0.565,7.077-1.129,10.615-1.694
				c-0.008-0.144-0.015-0.289-0.023-0.433c-3.354-0.569-6.708-1.138-10.062-1.707c-1.374-0.055-2.631-0.611-3.888-1.055
				c-1.208-0.426-1.942-1.432-2.155-2.778c-0.331-2.093-0.527-4.199-0.496-6.312c0.081-5.503-0.122-11.01,0.205-16.509
				c0.21-3.532,2.01-5.67,5.466-6.256c2.86-0.485,5.752-0.815,8.655-0.876c3.28-0.069,4.364,0.943,4.534,4.234
				c0.097,1.886-0.025,3.784-0.073,5.676c-0.117,4.577-0.45,9.149-0.36,13.73c0.077,3.938,1.497,5.439,5.419,5.619
				c6.985,0.319,13.974,0.55,20.961,0.836c4.879,0.2,9.758,0.361,14.642,0.349c2.507-0.006,3.314-0.717,3.471-3.266
				c0.391-6.327,0.509-12.665,0.52-19.003c0.003-1.932-0.815-2.656-2.722-2.818c-8.629-0.735-17.256-1.507-25.885-2.251
				c-3.373-0.291-6.749-0.544-10.124-0.82c-0.349-0.029-0.701-0.071-1.041-0.154c-0.541-0.132-1.039-0.364-0.959-1.046
				c0.083-0.71,0.577-0.94,1.229-0.894c3.113,0.219,6.228,0.426,9.34,0.669c4.381,0.342,8.76,0.712,13.14,1.07
				c1.091,0.125,2.18,0.276,3.274,0.369c3.986,0.341,7.987,0.552,11.957,1.026c3.202,0.382,4.25,1.705,4.232,4.95
				c-0.019,3.301-0.12,6.604-0.257,9.903c-0.142,3.428,0.037,6.877-0.521,10.279c-0.428,2.609-2.025,3.997-4.663,4.163
				c-0.614,0.039-1.233,0.04-1.848,0.018c-7.605-0.271-15.209-0.548-22.814-0.827c-3.824-0.14-7.654-0.202-11.471-0.459
				c-2.741-0.184-5.474-0.611-7.148-3.251c-0.496-1.232-0.858-2.491-0.886-3.834c-0.089-4.268,0.112-8.53,0.254-12.794
				c0.084-2.545,0.413-5.088,0.111-7.644c-0.152-1.283-0.781-1.848-2.093-1.807c-2.823,0.089-5.602,0.526-8.381,0.964
				c-2.213,0.348-3.368,1.667-3.667,3.856c-0.343,2.508-0.045,5.015-0.086,7.522c-0.075,4.533-0.392,9.072,0.087,13.6
				c0.287,2.713,1.015,3.547,3.672,3.852c3.304,0.379,6.564,1.012,9.848,1.496c0.552,0.143,1.1,0.303,1.656,0.425
				c0.965,0.211,1.776,0.524,1.745,1.756c-0.03,1.196-0.458,2.049-1.708,2.316c-0.688,0.146-1.375,0.3-2.067,0.419
				c-2.555,0.439-5.148,0.656-7.664,1.315c-0.408,0.107-0.942,0.176-0.933,0.751c0.008,0.472,0.47,0.61,0.831,0.743
				c0.825,0.304,1.662,0.577,2.499,0.847c2.134,0.688,4.278,1.35,6.405,2.059c0.962,0.321,1.595,1.023,1.541,2.064
				c-0.053,1.032-0.829,1.486-1.764,1.682c-0.559,0.117-1.123,0.211-1.682,0.326c-2.195,0.453-4.391,0.902-6.583,1.37
				c-0.526,0.112-1.012,0.267-0.969,1.007c0.038,0.661,0.414,0.878,0.964,1.065c2.207,0.75,4.402,1.535,6.599,2.312
				c0.993,0.351,2.029,0.595,2.94,1.155c0.963,0.593,1.086,1.558,1.044,2.542c-0.042,0.962-0.771,1.302-1.585,1.512
				c-2.936,0.757-5.873,1.511-8.805,2.282c-0.473,0.124-1.026,0.138-1.334,0.632c0.312,0.401,0.736,0.403,1.104,0.522
				c2.635,0.854,5.267,1.72,7.912,2.543c0.98,0.305,1.242,0.99,1.278,1.908c0.039,0.96-0.321,1.628-1.252,1.923
				c-0.501,0.159-1.014,0.29-1.53,0.395c-2.11,0.431-4.225,0.835-6.333,1.277c-0.455,0.095-1.115,0.16-1.121,0.73
				c-0.007,0.622,0.674,0.558,1.122,0.669c3.67,0.911,7.342,1.812,11.01,2.731c0.858,0.215,1.731,0.435,1.933,1.523
				c0.258,1.391-0.246,2.106-1.992,2.481c-3.555,0.763-7.125,1.458-10.687,2.189c-0.482,0.099-1.017,0.137-1.337,0.774
				c0.557,0.123,1.018,0.276,1.49,0.321c2.756,0.263,5.513,0.51,8.272,0.742c0.778,0.066,1.521,0.127,1.714,1.089
				c-0.117,0.452,0.131,0.854,0.173,1.283c0.121,1.252-0.212,2.255-1.529,2.692c-0.882,0.096-1.764,0.192-2.646,0.288"/>
			<path class="st1" d="M386.761,154.239c0.612-1.595,2.134-1.684,3.456-2.01c2.175-0.537,4.379-0.95,6.568-1.43
				c0.463-0.102,1.081-0.167,1.144-0.722c0.074-0.65-0.607-0.671-1.036-0.79c-2.626-0.729-5.26-1.428-7.893-2.132
				c-1.01-0.27-1.775-0.697-1.725-1.958c0.043-1.063,0.444-1.741,1.49-2.048c2.362-0.693,4.716-1.416,7.072-2.131
				c0.42-0.128,0.842-0.256,1.25-0.419c0.504-0.201,1.026-0.481,0.965-1.105c-0.063-0.645-0.682-0.576-1.142-0.645
				c-2.391-0.357-4.783-0.704-7.175-1.054c-1.839-0.269-2.346-0.889-2.21-2.587c0.074-0.926,0.577-1.422,1.398-1.71
				c1.464-0.513,3.004-0.643,4.511-0.939c1.673-0.329,3.338-0.698,5.068-1.062c-0.379-0.699-0.981-0.602-1.453-0.714
				c-2.48-0.59-4.972-1.129-7.458-1.697c-1.733-0.396-2.084-0.927-2-2.956c0.069-1.663,0.43-2.06,2.252-2.275
				c2.356-0.278,4.717-0.508,7.077-0.753c0.641-0.067,1.275-0.186,1.397-0.949c0.142-0.885-0.637-0.967-1.182-1.134
				c-2.522-0.771-5.056-1.502-7.591-2.232c-0.891-0.256-1.669-0.559-1.679-1.703c-0.01-1.155,0.479-1.985,1.554-2.346
				c0.911-0.306,1.872-0.467,2.816-0.668c1.719-0.365,3.446-0.698,5.162-1.076c0.497-0.11,1.151-0.174,1.214-0.823
				c0.066-0.688-0.603-0.79-1.077-0.962c-2.272-0.826-4.555-1.618-6.827-2.443c-0.659-0.239-1.298-0.538-1.939-0.827
				c-0.408-0.184-0.842-0.387-0.641-0.968c0.197-0.57,0.613-0.896,1.217-0.744c0.851,0.215,1.691,0.483,2.518,0.776
				c2.318,0.822,4.614,1.71,6.994,2.349c2.149,1.072,2.422,1.644,1.908,3.639c-0.337,1.307-1.227,1.809-2.455,2.031
				c-2.202,0.398-4.392,0.863-6.586,1.304c-0.329,0.066-0.703,0.053-0.997,0.581c2.334,0.673,4.584,1.359,6.855,1.968
				c2.535,0.681,2.909,1.112,2.848,3.607c-0.045,1.841-0.311,2.15-2.152,2.494c-2.467,0.309-4.935,0.615-7.402,0.931
				c-0.381,0.049-0.874,0.047-0.939,0.536c-0.081,0.615,0.504,0.646,0.891,0.744c1.692,0.428,3.394,0.816,5.092,1.218
				c1.033,0.483,2.175,0.504,3.264,0.749c0.818,0.184,1.459,0.515,1.829,1.286c0.003,0.53,0.006,1.059,0.009,1.589
				c-0.097,0.277-0.193,0.555-0.29,0.832c-1.817,1.132-3.937,1.086-5.933,1.52c-1.495,0.325-2.998,0.618-4.497,0.925
				c0.016,0.115,0.031,0.231,0.046,0.346c2.73,0.584,5.492,0.976,8.266,1.297c0.173,0.034,0.347,0.067,0.52,0.101
				c0.177,0.075,0.353,0.149,0.53,0.224c1.322,1.43,0.91,4.081-0.79,5.084c-2.888,0.701-5.712,1.598-8.81,2.692
				c3.331,1.304,6.523,1.88,9.594,2.856c0.127,0.097,0.253,0.194,0.38,0.291c0.152,0.695,0.191,1.403,0.072,2.099
				c-0.139,0.817-0.216,1.746-1.186,2.039c-0.997,0.302-1.968,0.68-3.02,0.828c-2.231,0.314-4.407,0.882-6.544,1.642
				c1.246,0.431,2.503,0.308,3.724,0.128c1.193-0.176,2.261-0.239,3.133,0.78c0.266,0.311,0.687,0.379,1.093,0.379
				c1.667-0.003,3.336,0.108,4.999-0.095c0.6,0.028,1.205,0.122,1.798,0.072c1.234-0.104,2.283,0.243,3.178,1.088
				c0.072,0.253,0.19,0.503,0.207,0.76c0.128,1.98,0.688,4.098-1.85,5.159c-0.732,0.306-0.994,1.006-0.982,1.851
				c0.028,1.973,0.072,3.955-0.077,5.919c-0.226,2.977-2.407,4.098-4.978,2.676c-0.223-0.123-0.49-0.167-0.737-0.248
				c-0.206-0.266-0.412-0.533-0.617-0.799c0.602-3.597,0.331-7.218,0.304-10.833c0.014-0.442,0.027-0.885,0.041-1.327
				c0.404-0.337,0.052-1.084,0.743-1.29c0.891-0.266,1.532,0.313,1.497,1.407c-0.107,3.294-0.212,6.588-0.323,9.882
				c-0.022,0.645,0.1,1.118,0.91,1.126c0.791,0.008,1.113-0.343,1.112-1.109c-0.003-1.319,0.101-2.643,0.017-3.956
				c-0.142-2.224,0.018-4.248,2.455-5.234c0.039-0.016,0.066-0.058,0.101-0.083c0.909-0.646,0.482-1.497,0.329-2.287
				c-0.161-0.826-0.857-0.605-1.388-0.608c-2.547-0.015-5.095,0.001-7.642-0.005c-0.656-0.002-1.47,0.104-1.848-0.468
				c-0.654-0.992-1.422-0.828-2.293-0.528c-1.038,0.057-2.075,0.137-3.114,0.165c-2.066,0.055-2.391-0.276-2.368-2.309
				C386.79,154.759,386.77,154.499,386.761,154.239z"/>
			<path class="st1" d="M379.068,152.524c-1.231,0.022-2.462,0.045-3.693,0.068c-0.18-0.017-0.361-0.034-0.541-0.051
				c-0.427-0.242-0.879-0.479-0.762-1.089c0.117-0.609,0.642-0.648,1.113-0.747c0.864-0.182,1.739-0.248,2.62-0.197
				c0.513,0.029,0.977,0.001,1.125-0.63c0.134-0.572,0.041-1.043-0.51-1.356c-1.08-0.614-2.19-1.113-3.475-1.082
				c-2.765,0.068-5.531,0.119-8.296,0.19c-0.347,0.009-0.699,0.075-1.037,0.16c-0.443,0.111-0.857,0.323-0.907,0.834
				c-0.059,0.598,0.463,0.699,0.867,0.81c1.44,0.395,2.894,0.736,4.333,1.135c0.536,0.149,1.169,0.285,0.996,1.11
				c-0.163,0.775-0.763,0.805-1.336,0.701c-1.726-0.314-3.449-0.654-5.161-1.04c-0.925-0.209-1.786-0.589-1.935-1.705
				c-0.167-1.25,0.072-2.383,1.127-3.191c0.782-0.6,1.665-0.956,2.681-0.953c3.206,0.01,6.413,0,9.62-0.001
				c1.878-0.001,3.301,1.08,4.767,2.038c0.443,0.289,0.51,0.79,0.5,1.296c-0.016,0.835-0.015,1.671-0.021,2.506
				c-0.112,0.24-0.224,0.48-0.336,0.721c-0.222,0.127-0.445,0.253-0.667,0.379C379.782,152.46,379.425,152.492,379.068,152.524z"/>
			<path class="st1" d="M371.39,142.045c-2.645,0.609-5.055-0.271-7.304-1.841c-0.857-0.598-1.929-3.548-1.524-4.503
				c0.348-0.82,1.121-0.972,1.874-0.963c1.581,0.018,3.162,0.117,4.743,0.19c0.698,0.032,1.397,0.159,1.398,1.044
				c0.001,0.974-0.786,0.884-1.442,0.908c-1.01,0.037-2.022,0.058-3.032,0.103c-0.375,0.017-0.851-0.101-0.99,0.422
				c-0.113,0.427,0.106,0.785,0.424,1.046c1.029,0.845,2.111,1.627,3.505,1.674c3.065,0.103,6.137,0.396,8.955-1.386
				c0.884-0.559,1.211-1.214,1.281-2.116c0.079-1.005-0.809-1.018-1.423-1.257c-4.508-1.753-9.029-3.474-13.532-5.241
				c-0.964-0.378-2.026-0.714-2.002-2.117c0.026-1.518,0.218-2.708,1.906-3.495c3.174-1.48,6.398-2.295,9.909-2.194
				c2.658,0.076,4.91,1.248,7.236,2.27c0.398,0.175,0.561,0.545,0.572,0.971c0.011,0.44,0.023,0.881,0.012,1.321
				c-0.064,2.4-0.38,2.723-2.79,2.734c-1.184,0.005-2.376,0.128-3.55-0.148c-0.469-0.11-1.029-0.134-0.949-0.833
				c0.068-0.596,0.426-0.972,1.037-1.008c0.79-0.047,1.583-0.026,2.373-0.074c0.666-0.041,1.572,0.242,1.785-0.687
				c0.225-0.982-0.759-1-1.342-1.308c-2.492-1.314-5.186-1.229-7.87-1.089c-1.855,0.097-3.397,1.143-5.027,1.891
				c-0.494,0.227-1.164,0.471-1.086,1.168c0.067,0.6,0.703,0.727,1.186,0.918c3.757,1.487,7.517,2.969,11.277,4.448
				c1.187,0.467,2.375,0.933,3.57,1.378c0.869,0.324,1.297,0.946,1.133,1.842c-0.341,1.859-0.736,3.517-2.812,4.528
				C376.496,141.804,374.137,142.399,371.39,142.045z"/>
			<path class="st1" d="M371.021,120.381c-1.584,0-3.169,0.044-4.75-0.009c-3.084-0.103-4.755-2.684-3.65-5.56
				c0.244-0.636,0.723-0.983,1.338-1.17c1.809-0.549,3.617-1.105,5.436-1.62c0.706-0.2,1.579-0.244,1.816,0.57
				c0.271,0.931-0.585,1.233-1.32,1.461c-1.302,0.403-2.592,0.859-3.914,1.179c-0.928,0.225-1.364,0.607-1.219,1.629
				c0.144,1.019,0.649,1.475,1.655,1.471c2.111-0.009,4.223-0.011,6.334,0.004c1.938,0.014,3.896,0.166,5.521-1.237
				c0.509-0.44,1.016-0.852,0.992-1.614c-0.03-0.969-0.199-1.711-1.488-1.565c-0.818,0.093-1.666-0.057-2.499-0.122
				c-0.465-0.036-0.9-0.184-0.888-0.763c0.011-0.584,0.243-1.064,0.911-1.073c1.582-0.022,3.167-0.061,4.745,0.015
				c0.834,0.04,1.38,0.542,1.305,1.491c-0.017,0.219-0.005,0.44-0.004,0.66c0.013,3.933-2.238,6.188-6.23,6.229
				c-1.364,0.014-2.727,0.002-4.091,0.002C371.021,120.366,371.021,120.373,371.021,120.381z"/>
		</g>
	</g>
	<g>
		<polygon class="st2" points="25.452,183.193 33.194,183.193 33.194,229.855 25.819,229.855 25.819,197.282 26.32,199.335 
			19.278,221.607 15.14,221.607 8.099,199.977 8.766,197.282 8.766,229.855 1.224,229.855 1.224,183.193 9.166,183.193 
			17.209,208.546 		"/>
		<path class="st2" d="M50.445,183.193h5.807l11.58,46.662h-8.209l-6.275-30.584l-6.273,30.584h-8.209L50.445,183.193z
			 M46.74,215.157h13.216v7.446H46.74V215.157z"/>
		<path class="st2" d="M77.222,229.037c-1.857-0.866-3.276-2.118-4.254-3.755c-0.98-1.637-1.468-3.61-1.468-5.921v-25.674
			c0-2.31,0.489-4.289,1.468-5.937c0.978-1.648,2.397-2.899,4.254-3.755c1.857-0.856,4.088-1.284,6.691-1.284
			c2.603,0,4.834,0.428,6.692,1.284c1.857,0.856,3.276,2.107,4.255,3.755c0.978,1.648,1.468,3.627,1.468,5.937v25.674
			c0,2.311-0.49,4.284-1.468,5.921c-0.979,1.637-2.398,2.888-4.255,3.755c-1.857,0.867-4.088,1.3-6.692,1.3
			C81.31,230.336,79.079,229.904,77.222,229.037 M86.099,221.897c0.611-0.321,1.073-0.781,1.385-1.38
			c0.311-0.599,0.468-1.326,0.468-2.182V194.65c0-0.835-0.157-1.551-0.468-2.151c-0.312-0.598-0.774-1.059-1.385-1.38
			c-0.613-0.321-1.341-0.482-2.186-0.482s-1.568,0.161-2.169,0.482c-0.601,0.321-1.057,0.781-1.368,1.38
			c-0.312,0.6-0.468,1.316-0.468,2.151v23.684c0,0.856,0.156,1.583,0.468,2.182c0.311,0.6,0.767,1.059,1.368,1.38
			c0.6,0.321,1.323,0.481,2.169,0.481S85.486,222.217,86.099,221.897 M81.077,219.522l5.372-5.873l14.383,13.126l-5.339,5.905
			L81.077,219.522z"/>
		<path class="st2" d="M110.291,228.94c-1.747-0.93-3.076-2.279-3.988-4.044c-0.912-1.765-1.368-3.877-1.368-6.338v-35.366h8.309
			v35.591c0,1.134,0.289,2.017,0.868,2.648c0.578,0.631,1.379,0.946,2.403,0.946c1.045,0,1.862-0.315,2.452-0.946
			c0.589-0.631,0.884-1.514,0.884-2.648v-35.591h8.31v35.366c0,2.461-0.462,4.573-1.386,6.338c-0.923,1.765-2.257,3.113-4.004,4.044
			c-1.747,0.93-3.833,1.396-6.257,1.396C114.112,230.336,112.037,229.871,110.291,228.94"/>
		<rect x="134.967" y="183.193" class="st2" width="8.276" height="46.662"/>
		<polygon class="st2" points="151.249,183.193 157.757,183.193 169.17,214.322 168.268,215.574 168.268,183.193 175.81,183.193 
			175.81,229.823 169.237,229.823 157.957,200.491 158.824,199.207 158.824,229.823 151.249,229.823 		"/>
		<path class="st2" d="M193.061,183.193h5.806l11.58,46.662h-8.209l-6.275-30.584l-6.274,30.584h-8.209L193.061,183.193z
			 M189.357,215.157h13.216v7.446h-13.216V215.157z"/>
		<path class="st2" d="M216.786,183.161h8.109v46.694h-8.109V183.161z M220.49,202.481h8.743c0.712,0,1.329-0.123,1.852-0.369
			c0.522-0.245,0.917-0.599,1.185-1.059c0.267-0.459,0.401-1.01,0.401-1.652v-5.199c0-0.706-0.133-1.316-0.401-1.829
			c-0.267-0.513-0.662-0.903-1.185-1.171c-0.523-0.267-1.14-0.401-1.852-0.401h-8.743v-7.638h8.242c2.625,0,4.867,0.412,6.725,1.235
			c1.858,0.824,3.275,2.032,4.255,3.626c0.978,1.594,1.468,3.504,1.468,5.729v5.456c0,2.29-0.49,4.252-1.468,5.889
			c-0.98,1.637-2.403,2.883-4.271,3.739c-1.87,0.856-4.105,1.283-6.709,1.283h-8.242V202.481z M227.231,208.674l7.576-1.476
			l7.742,22.657h-8.877L227.231,208.674z"/>
		<rect x="249.721" y="183.193" class="st2" width="8.276" height="46.662"/>
		<path class="st2" d="M274.58,183.193h5.806l11.58,46.662h-8.209l-6.275-30.584l-6.274,30.584H263L274.58,183.193z
			 M270.876,215.157h13.216v7.446h-13.216V215.157z"/>
		<path class="st2" d="M300.607,228.973c-1.825-0.909-3.221-2.225-4.189-3.947c-0.967-1.721-1.451-3.792-1.451-6.21v-2.504
			l8.243-0.064v2.504c0,1.177,0.345,2.102,1.034,2.776c0.689,0.674,1.647,1.011,2.871,1.011c1.2,0,2.13-0.331,2.786-0.995
			c0.656-0.663,0.984-1.572,0.984-2.728v-4.076c0-0.855-0.25-1.599-0.751-2.231c-0.5-0.63-1.146-1.176-1.936-1.637
			c-0.79-0.459-1.863-1.01-3.219-1.652c-0.09-0.042-0.173-0.085-0.251-0.129c-0.078-0.042-0.161-0.085-0.25-0.129l-0.434-0.192
			c-1.801-0.877-3.337-1.792-4.605-2.743c-1.267-0.952-2.325-2.209-3.171-3.772c-0.845-1.561-1.267-3.487-1.267-5.776v-2.407
			c0-2.374,0.472-4.412,1.418-6.113c0.945-1.701,2.32-3.001,4.122-3.9c1.802-0.898,3.971-1.347,6.508-1.347
			c2.469,0,4.594,0.449,6.374,1.347c1.78,0.899,3.137,2.21,4.071,3.932c0.935,1.722,1.402,3.792,1.402,6.21v2.631l-8.243,0.096
			v-2.663c0-1.198-0.317-2.134-0.95-2.808c-0.634-0.674-1.519-1.011-2.653-1.011c-1.202,0-2.131,0.305-2.787,0.914
			c-0.656,0.61-0.985,1.45-0.985,2.519v3.113c0,0.877,0.239,1.637,0.718,2.279c0.478,0.642,1.079,1.183,1.802,1.62
			c0.723,0.439,1.73,0.969,3.02,1.589c0.244,0.107,0.494,0.225,0.751,0.353c0.255,0.128,0.517,0.256,0.784,0.385
			c0.044,0.021,0.083,0.043,0.117,0.064c0.034,0.021,0.072,0.043,0.117,0.064c1.847,0.941,3.338,1.813,4.472,2.615
			c1.135,0.803,2.102,1.931,2.903,3.386c0.801,1.455,1.201,3.316,1.201,5.584v3.883c0,2.418-0.473,4.488-1.419,6.21
			c-0.945,1.723-2.319,3.038-4.121,3.947c-1.802,0.909-3.96,1.364-6.474,1.364C304.611,230.336,302.431,229.882,300.607,228.973"/>
		<path class="st2" d="M22.033,112.677v53.898H0V91.94c0.852-0.061,1.715-0.175,2.578-0.176c8.833-0.013,17.667,0.064,26.498-0.062
			c2.053-0.029,2.964,0.613,3.695,2.521c6.737,17.566,13.603,35.084,20.373,52.638c0.671,1.739,1.315,2.852,3.541,2.737
			c2.017-0.104,3.171-0.465,4.008-2.576c6.967-17.588,14.121-35.101,21.114-52.679c0.796-2.002,1.806-2.677,3.949-2.639
			c7.526,0.135,15.055,0.047,22.583,0.059c0.877,0.001,1.755,0.09,2.776,0.146v74.616H92.032v-53.577
			c-0.178-0.03-0.355-0.059-0.533-0.09c-0.403,0.872-0.825,1.736-1.203,2.619c-6.868,16.011-13.767,32.01-20.547,48.058
			c-0.861,2.036-1.862,2.873-4.16,2.789c-5.313-0.194-10.642-0.178-15.956-0.003c-2.063,0.068-2.952-0.68-3.758-2.476
			c-7.251-16.166-14.6-32.288-21.926-48.42c-0.44-0.969-0.931-1.914-1.397-2.871C22.379,112.595,22.206,112.636,22.033,112.677"/>
		<path class="st2" d="M317.387,123.399v42.863h-3.4c-18.965,0-37.93-0.045-56.895,0.016c-12.01,0.038-20.659-5.648-25.754-16.079
			c-5.893-12.064-6.356-24.859-1.438-37.352c5.198-13.201,15.934-19.954,29.634-20.496c18.735-0.74,37.522-0.187,56.286-0.178
			c0.478,0.001,0.955,0.133,1.567,0.223v11.794h-3.346c-16.457,0-32.916,0.171-49.368-0.091c-5.935-0.094-9.661,2.629-12.449,7.303
			c-2.91,4.879-3.685,10.333-3.851,15.885c-0.202,6.761,0.28,13.461,3.364,19.634c2.735,5.473,6.655,8.842,13.474,8.522
			c9.311-0.438,18.659-0.109,27.991-0.109h3.459v-18.424h-28.115v-13.51H317.387z"/>
		<path class="st2" d="M153.336,140.391v25.668h-22.277V92.413c0.571-0.085,1.131-0.241,1.69-0.241
			c21.761,0.019,43.523-0.049,65.284,0.124c11.965,0.096,19.187,7.635,19.237,19.552c0.011,2.505,0.019,5.01-0.001,7.514
			c-0.104,13.021-7.973,20.933-21.059,21.011c-13.037,0.077-26.074,0.018-39.111,0.018H153.336z M153.581,104.258v24.946
			c10.461,0,20.68,0.25,30.874-0.15c3.12-0.122,6.464-1.546,9.189-3.215c5.74-3.515,6.34-11.56,1.591-16.386
			c-3-3.048-6.791-4.968-10.924-5.094C174.125,104.05,163.923,104.258,153.581,104.258"/>
	</g>
	<rect y="174.631" class="st1" width="339.733" height="2.327"/>
</g>
</svg>